<svg xmlns:dc="http://purl.org/dc/elements/1.1/" xmlns:cc="http://creativecommons.org/ns#" xmlns:rdf="http://www.w3.org/1999/02/22-rdf-syntax-ns#" xmlns:svg="http://www.w3.org/2000/svg" xmlns="http://www.w3.org/2000/svg" viewBox="0 0 171.72 132.82668" height="132.8" width="171.7" xml:space="preserve" id="svg2" version="1.1"><metadata id="metadata8"><rdf:RDF><cc:Work rdf:about=""><dc:format>image/svg+xml</dc:format><dc:type rdf:resource="http://purl.org/dc/dcmitype/StillImage"/></cc:Work></rdf:RDF></metadata><defs id="defs6"><clipPath id="clipPath20" clipPathUnits="userSpaceOnUse"><path id="path18" d="M 0 0 H 1288 V 996 H 0 Z"/></clipPath></defs><g transform="matrix(1.3333333,0,0,-1.3333333,0,132.82667)" id="g10"><g transform="scale(0.1)" id="g12"><g id="g14"><g clip-path="url(#clipPath20)" id="g16"><path id="path22" style="fill:#324243;fill-opacity:1;fill-rule:nonzero;stroke:none" d="m 140.8 146.1 c -25.3 0 -42.9 19.3 -42.9 47 0 28.1 17.3 47 42.9 47 25.3 0 42.9 -19.3 42.9 -47 0 -27.7 -17.7 -47 -42.9 -47 z m 0 119 c -41.3 0 -71.2 -30.3 -71.2 -72 0 -41.7 29.9 -72 71.2 -72 41.3 0 71.2 30.3 71.2 72 0 41.7 -29.9 72 -71.2 72"/><path id="path24" style="fill:#324243;fill-opacity:1;fill-rule:nonzero;stroke:none" d="m 345.6 228 c -14 0 -26.1 -7.8 -32.8 -15.9 -4.5 10.2 -14.3 15.9 -27.4 15.9 -12.3 0 -23.7 -6.5 -29.9 -12.6 v 10.1 H 230.4 V 123.5 h 25.2 v 69.8 c 4.3 6 12.2 11.9 20.6 11.9 9.6 0 14.3 -5.1 14.3 -15.7 v -65.9 h 25.2 v 70 c 4.1 5.7 12.2 11.7 20.8 11.7 9.4 0 14.1 -5.3 14.1 -15.7 v -65.9 h 25.2 v 72.8 c 0 20.4 -10.7 31.6 -30.2 31.6"/><path id="path26" style="fill:#324243;fill-opacity:1;fill-rule:nonzero;stroke:none" d="m 471.8 174.4 c 0 -18.6 -10.2 -30.6 -25.9 -30.6 -8.8 0 -18.7 5 -23.2 11.6 v 37.6 c 4.7 6.9 14.6 12 23.2 12 15.5 0 25.9 -12.4 25.9 -30.8 z m -19.6 53.5 c -11.2 0 -21.8 -4.6 -29.5 -12.7 v 47.6 H 397.4 V 123.5 h 25.2 v 10.1 c 7.9 -8 18.4 -12.6 29.5 -12.6 27.2 0 45.4 21.4 45.4 53.3 0 32 -18.2 53.5 -45.4 53.5"/><path id="path28" style="fill:#324243;fill-opacity:1;fill-rule:nonzero;stroke:none" d="m 581.6 155.4 c -4.3 -5.4 -12.8 -11.5 -23.2 -11.5 -12.4 0 -17.8 5.4 -17.8 18 v 63.7 h -25.2 v -71.4 c 0 -21.6 11.6 -33 33.4 -33 15.8 0 26.8 7.3 32.8 12.7 v -10.2 H 606.8 V 225.5 h -25.2 v -70.1"/><path id="path30" style="fill:#324243;fill-opacity:1;fill-rule:nonzero;stroke:none" d="M 699.6 193.3 V 155.5 C 694.7 148.8 685 143.9 676.1 143.9 c -15.4 0 -25.7 12.3 -25.7 30.6 0 18.4 10.3 30.8 25.7 30.8 8.8 0 18.6 -5 23.4 -11.9 z m 0 21.9 c -7.9 8.2 -18.4 12.8 -29.5 12.8 -27.3 0 -45.6 -21.5 -45.6 -53.5 0 -31.9 18.3 -53.3 45.6 -53.3 11.1 0 21.6 4.5 29.5 12.6 v -10.1 h 25.2 v 139.3 h -25.2 v -47.7"/><path id="path32" style="fill:#324243;fill-opacity:1;fill-rule:nonzero;stroke:none" d="m 788.2 187.1 -0.9 0.2 c -10.2 2.3 -18.9 4.3 -18.9 9.7 0 5.9 6.7 10 16.3 10 10.8 0 21.6 -4.4 27.6 -11.1 l 1.8 -2 11.1 18.7 -1.2 1.1 c -10.6 9.4 -24.2 14.3 -39.5 14.3 -27.8 0 -40.5 -16.5 -40.5 -31.8 0 -23.6 22.2 -28.4 38.8 -32 11 -2.4 20.5 -4.5 20.5 -11 0 -7 -6.5 -11.3 -17.4 -11.3 -12.5 0 -25.5 6.6 -31.9 13.2 l -1.7 1.8 -11.9 -18.9 1.1 -1.1 c 10.4 -10.2 25.8 -15.8 43.4 -15.8 26 0 42.8 12.7 42.8 32.4 0 25.1 -23.8 30.2 -39.5 33.6"/><path id="path34" style="fill:#324243;fill-opacity:1;fill-rule:nonzero;stroke:none" d="m 958.5 228 c -14 0 -26.1 -7.8 -32.8 -15.9 -4.5 10.2 -14.3 15.9 -27.4 15.9 -12.3 0 -23.7 -6.5 -29.9 -12.6 v 10.1 H 843.3 V 123.5 h 25.2 v 69.8 c 4.3 6 12.2 11.9 20.6 11.9 9.6 0 14.3 -5.1 14.3 -15.7 v -65.9 h 25.2 v 70 c 4.1 5.7 12.2 11.7 20.8 11.7 9.4 0 14.1 -5.3 14.1 -15.7 v -65.9 h 25.2 v 72.8 c 0 20.4 -10.7 31.6 -30.2 31.6"/><path id="path36" style="fill:#324243;fill-opacity:1;fill-rule:nonzero;stroke:none" d="m 1049.9 139.6 c -11.2 0 -19 6.4 -19 15.5 0 9.4 7.6 15.7 19 15.7 9.1 0 17.1 -3.3 21.4 -8.9 v -13.5 c -4.3 -5.6 -12.3 -8.9 -21.4 -8.9 z m 3.9 88.3 c -16.5 0 -31.2 -5.7 -42.6 -16.4 l -1.1 -1.1 10.8 -18.3 1.8 1.7 c 8.2 8 17.2 11.8 27.7 11.8 12.8 0 21 -6.4 21 -16.3 v -9.9 c -7.3 6.4 -17.7 9.8 -29.7 9.8 -17.4 0 -36.1 -10.6 -36.1 -33.8 0 -22.4 18.6 -34.4 36.1 -34.4 11.8 0 22.1 3.6 29.7 10.3 v -7.8 h 25.2 v 66.9 c 0 23.8 -15.6 37.5 -42.8 37.5"/><path id="path38" style="fill:#324243;fill-opacity:1;fill-rule:nonzero;stroke:none" d="m 1176 228 c -13.8 0 -25.3 -6.2 -32.6 -12.9 v 10.5 h -25.2 V 123.5 h 25.2 v 69.7 c 4.3 5.6 12.8 11.9 23.2 11.9 12.3 0 17.8 -5.7 17.8 -18.4 v -63.3 h 25.2 v 71 c 0 21.6 -11.9 33.4 -33.6 33.4"/><path id="path40" style="fill:#324243;fill-opacity:1;fill-rule:nonzero;stroke:none" d="M 80.3 17.7 H 90.9 V 77.9 H 80.3 Z"/><path id="path42" style="fill:#324243;fill-opacity:1;fill-rule:nonzero;stroke:none" d="m 134.7 17.7 v 27.3 c 0 6.8 -3.4 9 -8.8 9 -4.9 0 -9 -2.9 -11.2 -5.9 V 17.7 h -9.5 v 43.6 h 9.5 v -6 c 2.9 3.4 8.5 7.1 15.4 7.1 9.4 0 14.1 -5.1 14.1 -14 V 17.7 h -9.5"/><path id="path44" style="fill:#324243;fill-opacity:1;fill-rule:nonzero;stroke:none" d="m 188.9 30.8 v 17.3 c -2.2 3.2 -6.8 5.9 -11.3 5.9 -7.5 0 -12.3 -6 -12.3 -14.5 0 -8.4 4.8 -14.5 12.3 -14.5 4.5 0 9.1 2.5 11.3 5.8 z m 0 -13.1 v 6 c -3.3 -4.3 -8.4 -7 -14 -7 -11.2 0 -19.4 8.5 -19.4 22.9 0 14.1 8.1 22.9 19.4 22.9 5.4 0 10.5 -2.5 14 -7.1 v 22.7 h 9.5 V 17.7 h -9.5"/><path id="path46" style="fill:#324243;fill-opacity:1;fill-rule:nonzero;stroke:none" d="m 231.9 54.6 c -8.1 0 -11.8 -6.2 -12.3 -11.6 h 24.6 c -0.2 5.1 -3.7 11.6 -12.3 11.6 z M 209.7 39.6 c 0 12.6 9.2 22.9 22.1 22.9 13.1 0 21.5 -10 21.5 -23.8 v -2.2 h -33.7 c 0.7 -6.6 5.7 -12 13.9 -12 4.2 0 9.3 1.7 12.4 4.8 l 4.3 -6.2 c -4.3 -4.2 -10.7 -6.3 -17.7 -6.3 -13.1 0 -22.9 9.1 -22.9 22.9"/><path id="path48" style="fill:#324243;fill-opacity:1;fill-rule:nonzero;stroke:none" d="m 297.5 39.6 c 0 8.4 -4.8 14.5 -12.3 14.5 -4.4 0 -9.1 -2.6 -11.2 -5.9 V 30.9 c 2.1 -3.2 6.8 -5.9 11.2 -5.9 7.5 0 12.3 6.1 12.3 14.5 z M 274 23.8 V 1.1 h -9.5 V 61.3 h 9.5 v -6 c 3.3 4.3 8.3 7.1 14 7.1 11.3 0 19.3 -8.5 19.3 -22.9 0 -14.4 -8 -22.9 -19.3 -22.9 -5.5 0 -10.5 2.4 -14 7.1"/><path id="path50" style="fill:#324243;fill-opacity:1;fill-rule:nonzero;stroke:none" d="m 337.9 54.6 c -8.1 0 -11.8 -6.2 -12.3 -11.6 h 24.6 c -0.2 5.1 -3.7 11.6 -12.3 11.6 z M 315.8 39.6 c 0 12.6 9.2 22.9 22.1 22.9 13.1 0 21.5 -10 21.5 -23.8 V 36.4 H 325.7 c 0.7 -6.6 5.7 -12 13.9 -12 4.2 0 9.3 1.7 12.4 4.8 l 4.3 -6.2 c -4.3 -4.2 -10.7 -6.3 -17.7 -6.3 -13.1 0 -22.8 9.1 -22.8 22.9"/><path id="path52" style="fill:#324243;fill-opacity:1;fill-rule:nonzero;stroke:none" d="m 400 17.7 v 27.3 c 0 6.8 -3.4 9 -8.8 9 -4.9 0 -9 -2.9 -11.2 -5.9 V 17.7 h -9.5 v 43.6 h 9.5 v -6 c 2.9 3.4 8.5 7.1 15.4 7.1 9.4 0 14.1 -5.1 14.1 -14 V 17.7 h -9.5"/><path id="path54" style="fill:#324243;fill-opacity:1;fill-rule:nonzero;stroke:none" d="m 454.3 30.8 v 17.3 c -2.2 3.2 -6.8 5.9 -11.3 5.9 -7.5 0 -12.3 -6 -12.3 -14.5 0 -8.4 4.8 -14.5 12.3 -14.5 4.5 0 9.1 2.5 11.3 5.8 z m 0 -13.1 v 6 c -3.3 -4.3 -8.4 -7 -14 -7 -11.2 0 -19.4 8.5 -19.4 22.9 0 14.1 8.1 22.9 19.4 22.9 5.4 0 10.5 -2.5 14 -7.1 v 22.7 h 9.5 V 17.7 h -9.5"/><path id="path56" style="fill:#324243;fill-opacity:1;fill-rule:nonzero;stroke:none" d="m 497.2 54.6 c -8.1 0 -11.8 -6.2 -12.3 -11.6 h 24.6 c -0.2 5.1 -3.7 11.6 -12.3 11.6 z M 475.1 39.6 c 0 12.6 9.2 22.9 22.1 22.9 13.1 0 21.5 -10 21.5 -23.8 v -2.2 h -33.7 c 0.7 -6.6 5.7 -12 13.9 -12 4.2 0 9.3 1.7 12.4 4.8 l 4.3 -6.2 c -4.3 -4.2 -10.7 -6.3 -17.7 -6.3 -13.1 0 -22.9 9.1 -22.9 22.9"/><path id="path58" style="fill:#324243;fill-opacity:1;fill-rule:nonzero;stroke:none" d="m 559.3 17.7 v 27.3 c 0 6.8 -3.4 9 -8.8 9 -4.9 0 -9 -2.9 -11.2 -5.9 V 17.7 h -9.5 v 43.6 h 9.5 v -6 c 2.9 3.4 8.5 7.1 15.4 7.1 9.4 0 14.1 -5.1 14.1 -14 V 17.7 h -9.5"/><path id="path60" style="fill:#324243;fill-opacity:1;fill-rule:nonzero;stroke:none" d="m 584.8 27.8 v 25.2 h -7.2 v 8.3 h 7.2 v 11.9 h 9.5 V 61.3 h 8.9 v -8.3 h -8.9 V 30.2 c 0 -3 1.4 -5.1 4.2 -5.1 1.8 0 3.5 0.7 4.2 1.5 l 2.3 -7.1 c -1.7 -1.6 -4.5 -2.8 -8.9 -2.8 -7.3 0 -11.2 4 -11.2 11.2"/><path id="path62" style="fill:#324243;fill-opacity:1;fill-rule:nonzero;stroke:none" d="m 638.7 17.7 h 10.6 V 77.9 H 638.7 Z"/><path id="path64" style="fill:#324243;fill-opacity:1;fill-rule:nonzero;stroke:none" d="m 693.1 17.7 v 27.3 c 0 6.8 -3.4 9 -8.8 9 -4.9 0 -9 -2.9 -11.2 -5.9 V 17.7 h -9.5 v 43.6 h 9.5 v -6 c 2.9 3.4 8.5 7.1 15.4 7.1 9.4 0 14.1 -5.1 14.1 -14 V 17.7 h -9.5"/><path id="path66" style="fill:#324243;fill-opacity:1;fill-rule:nonzero;stroke:none" d="m 728.1 17.7 -17.8 43.6 h 10.1 l 12.7 -32.7 12.7 32.7 h 10.2 L 738.3 17.7 h -10.2"/><path id="path68" style="fill:#324243;fill-opacity:1;fill-rule:nonzero;stroke:none" d="m 783.3 54.6 c -8.1 0 -11.8 -6.2 -12.3 -11.6 h 24.6 c -0.2 5.1 -3.7 11.6 -12.3 11.6 z M 761.1 39.6 c 0 12.6 9.2 22.9 22.1 22.9 13.1 0 21.5 -10 21.5 -23.8 v -2.2 h -33.7 c 0.7 -6.6 5.7 -12 13.9 -12 4.2 0 9.3 1.7 12.4 4.8 l 4.3 -6.2 c -4.3 -4.2 -10.8 -6.3 -17.7 -6.3 -13.1 0 -22.9 9.1 -22.9 22.9"/><path id="path70" style="fill:#324243;fill-opacity:1;fill-rule:nonzero;stroke:none" d="m 812.1 23.4 4.3 6.9 c 3.1 -3.2 9.1 -6.1 14.8 -6.1 5.7 0 8.6 2.4 8.6 5.9 0 3.6 -4.6 4.6 -9.9 5.8 -7.5 1.6 -16.4 3.6 -16.4 13.4 0 7.1 6.1 13.3 17.2 13.3 7.4 0 13 -2.6 17 -6.2 l -4 -6.7 c -2.6 3 -7.5 5.2 -12.9 5.2 -5 0 -8.1 -2.3 -8.1 -5.3 0 -3.2 4.3 -4.1 9.5 -5.2 7.6 -1.6 16.9 -3.8 16.9 -14.1 0 -7.7 -6.4 -13.5 -18.2 -13.5 -7.4 0 -14.2 2.3 -18.7 6.8"/><path id="path72" style="fill:#324243;fill-opacity:1;fill-rule:nonzero;stroke:none" d="m 862.2 27.8 v 25.2 h -7.2 v 8.3 h 7.2 v 11.9 h 9.5 V 61.3 h 8.9 v -8.3 h -8.9 V 30.2 c 0 -3 1.4 -5.1 4.2 -5.1 1.8 0 3.5 0.7 4.2 1.5 l 2.3 -7.1 c -1.7 -1.6 -4.5 -2.8 -8.9 -2.8 -7.3 0 -11.2 4 -11.2 11.2"/><path id="path74" style="fill:#324243;fill-opacity:1;fill-rule:nonzero;stroke:none" d="m 890.9 17.7 v 43.6 h 9.5 V 17.7 Z m -1.2 54.8 c 0 3.2 2.7 5.9 5.9 5.9 3.2 0 5.9 -2.6 5.9 -5.9 0 -3.3 -2.6 -5.9 -5.9 -5.9 -3.2 0 -5.9 2.6 -5.9 5.9"/><path id="path76" style="fill:#324243;fill-opacity:1;fill-rule:nonzero;stroke:none" d="m 945.1 31.9 v 16.3 c -2.1 3.2 -6.8 5.9 -11.2 5.9 -7.5 0 -12.3 -5.6 -12.3 -14 0 -8.4 4.8 -14 12.3 -14 4.4 0 9.1 2.6 11.2 5.9 z m -31.2 -25.4 4.4 6.9 c 3.5 -4.1 8 -5.6 13.8 -5.6 6.2 0 12.9 2.9 12.9 11.8 v 5.3 c -3.3 -4.3 -8.3 -7.2 -14 -7.2 -11.1 0 -19.3 8 -19.3 22.4 0 14.1 8.1 22.4 19.3 22.4 5.5 0 10.5 -2.5 14 -7.1 v 6.1 h 9.5 V 20 C 954.6 4.2 942.9 0 932.2 0 924.8 0 919.3 1.6 913.9 6.5"/><path id="path78" style="fill:#324243;fill-opacity:1;fill-rule:nonzero;stroke:none" d="m 995.3 27.6 v 6.6 c -2.2 3 -6.2 4.5 -10.4 4.5 -5.3 0 -9.3 -3.1 -9.3 -7.9 0 -4.7 4 -7.8 9.3 -7.8 4.2 0 8.2 1.5 10.4 4.5 z m 0 -9.9 v 4.7 c -3.2 -3.7 -8.3 -5.8 -14.1 -5.8 -7.1 0 -15.2 4.8 -15.2 14.5 0 10 8 14.2 15.2 14.2 5.9 0 10.9 -1.9 14.1 -5.6 v 6.5 c 0 5.1 -4.2 8.1 -10.2 8.1 -4.9 0 -9.1 -1.8 -12.9 -5.5 l -3.9 6.6 c 5.1 4.8 11.4 7.1 18.3 7.1 9.7 0 18.2 -4.1 18.2 -15.8 V 17.7 h -9.5"/><path id="path80" style="fill:#324243;fill-opacity:1;fill-rule:nonzero;stroke:none" d="m 1020.7 27.8 v 25.2 h -7.2 v 8.3 h 7.2 v 11.9 h 9.5 V 61.3 h 8.9 v -8.3 h -8.9 V 30.2 c 0 -3 1.4 -5.1 4.2 -5.1 1.8 0 3.5 0.7 4.2 1.5 l 2.2 -7.1 c -1.7 -1.6 -4.5 -2.8 -8.9 -2.8 -7.3 0 -11.2 4 -11.2 11.2"/><path id="path82" style="fill:#324243;fill-opacity:1;fill-rule:nonzero;stroke:none" d="m 1049.4 17.7 v 43.6 h 9.5 V 17.7 Z m -1.2 54.8 c 0 3.2 2.7 5.9 5.9 5.9 3.3 0 5.9 -2.6 5.9 -5.9 0 -3.3 -2.6 -5.9 -5.9 -5.9 -3.2 0 -5.9 2.6 -5.9 5.9"/><path id="path84" style="fill:#324243;fill-opacity:1;fill-rule:nonzero;stroke:none" d="m 1105.3 39.6 c 0 7.7 -4.5 14.5 -12.7 14.5 -8 0 -12.6 -6.8 -12.6 -14.5 0 -7.8 4.5 -14.5 12.6 -14.5 8.1 0 12.7 6.8 12.7 14.5 z m -35 0 c 0 12.5 8.6 22.9 22.4 22.9 14 0 22.5 -10.4 22.5 -22.9 0 -12.6 -8.5 -22.9 -22.5 -22.9 -13.8 0 -22.4 10.4 -22.4 22.9"/><path id="path86" style="fill:#324243;fill-opacity:1;fill-rule:nonzero;stroke:none" d="m 1156 17.7 v 27.3 c 0 6.8 -3.4 9 -8.8 9 -4.9 0 -9 -2.9 -11.2 -5.9 V 17.7 h -9.5 v 43.6 h 9.5 v -6 c 2.9 3.4 8.5 7.1 15.3 7.1 9.4 0 14.1 -5.1 14.1 -14 V 17.7 h -9.5"/><path id="path88" style="fill:#324243;fill-opacity:1;fill-rule:nonzero;stroke:none" d="m 1175.7 23.4 4.3 6.9 c 3.1 -3.2 9.1 -6.1 14.8 -6.1 5.7 0 8.6 2.4 8.6 5.9 0 3.6 -4.6 4.6 -9.9 5.8 -7.5 1.6 -16.4 3.6 -16.4 13.4 0 7.1 6.2 13.3 17.2 13.3 7.4 0 13 -2.6 17 -6.2 l -4 -6.7 c -2.6 3 -7.5 5.2 -12.9 5.2 -5 0 -8.1 -2.3 -8.1 -5.3 0 -3.2 4.3 -4.1 9.5 -5.2 7.6 -1.6 16.9 -3.8 16.9 -14.1 0 -7.7 -6.4 -13.5 -18.2 -13.5 -7.4 0 -14.2 2.3 -18.7 6.8"/><path id="path90" style="fill:#324243;fill-opacity:1;fill-rule:nonzero;stroke:none" d="m 428.6 430.8 c -9.9 0 -20.4 -6.1 -25.1 -13.4 v -38.6 c 4.7 -7.3 15.2 -12.9 25.1 -12.9 17 0 27.7 13.3 27.7 32.4 0 19 -10.7 32.6 -27.7 32.6"/><path id="path92" style="fill:#324243;fill-opacity:1;fill-rule:nonzero;stroke:none" d="m 312.5 430.8 c -18 0 -28.1 -15.2 -28.1 -32.4 0 -17.4 10.1 -32.6 28.1 -32.6 18.2 0 28.3 15.2 28.3 32.6 0 17.2 -10.1 32.4 -28.3 32.4"/><path id="path94" style="fill:#324243;fill-opacity:1;fill-rule:nonzero;stroke:none" d="m 134.9 669.6 h -32.4 v -42.9 h 32.4 c 13.4 0 23.1 8.5 23.1 21.4 0 12.9 -9.7 21.4 -23.1 21.4"/><path id="path96" style="fill:#324243;fill-opacity:1;fill-rule:nonzero;stroke:none" d="m 457.7 571.9 c 18.2 0 28.3 15.2 28.3 32.6 0 17.2 -10.1 32.4 -28.3 32.4 -18 0 -28.1 -15.2 -28.1 -32.4 0 -17.4 10.1 -32.6 28.1 -32.6"/><path id="path98" style="fill:#324243;fill-opacity:1;fill-rule:nonzero;stroke:none" d="m 812.1 570.1 c 8.7 0 16.6 3.8 23.3 9.5 -6.7 7.3 -12.9 14.2 -16.6 18.6 -4.9 5.9 -10.1 12.5 -15 19.4 -8.9 -5.9 -15.2 -13.2 -15.2 -24.3 0 -14.8 11.1 -23.3 23.5 -23.3"/><path id="path100" style="fill:#324243;fill-opacity:1;fill-rule:nonzero;stroke:none" d="m 134.9 463.6 h -32.4 v -42.9 h 32.4 c 13.4 0 23.1 8.5 23.1 21.4 0 12.9 -9.7 21.5 -23.1 21.5"/><path id="path102" style="fill:#324243;fill-opacity:1;fill-rule:nonzero;stroke:none" d="m 536.2 396.7 c -11.9 0 -20.8 -6.9 -20.8 -17.6 0 -10.5 8.9 -17.4 20.8 -17.4 9.3 0 18.4 3.4 23.3 10.1 v 14.8 c -4.9 6.7 -14 10.1 -23.3 10.1"/><path id="path104" style="fill:#324243;fill-opacity:1;fill-rule:nonzero;stroke:none" d="m 837 663.8 c 0 8.3 -5.9 12.9 -13.6 12.9 -9.1 0 -16.2 -6.9 -16.2 -16.6 0 -6.1 2.6 -13.4 6.7 -20.4 12.7 6.1 23.1 12.5 23.1 24.1"/><path id="path106" style="fill:#324243;fill-opacity:1;fill-rule:nonzero;stroke:none" d="m 769.6 430.8 c -18 0 -28.1 -15.2 -28.1 -32.4 0 -17.4 10.1 -32.6 28.1 -32.6 18.2 0 28.3 15.2 28.3 32.6 0 17.2 -10.1 32.4 -28.3 32.4"/><path id="path108" style="fill:#324243;fill-opacity:1;fill-rule:nonzero;stroke:none" d="m 927.6 349.5 h -21.2 v 61.1 c 0 15.2 -7.7 20.2 -19.6 20.2 -10.9 0 -20.2 -6.5 -25.1 -13.1 v -68.2 h -21.2 v 97.7 h 21.2 v -13.3 c 6.5 7.7 19 15.8 34.4 15.8 21 0 31.6 -11.3 31.6 -31.4 z m -158 -2.4 c -31 0 -50.2 23.3 -50.2 51.4 0 27.9 19.2 51.2 50.2 51.2 31.4 0 50.4 -23.3 50.4 -51.2 0 -28.1 -19 -51.4 -50.4 -51.4 z m -93 206 c -16.6 0 -31.8 5.3 -41.9 15.2 l 9.7 15.4 c 6.9 -7.1 20.4 -13.8 33.2 -13.8 12.7 0 19.2 5.5 19.2 13.1 0 8.1 -10.3 10.3 -22.3 12.9 -16.8 3.6 -36.8 8.1 -36.8 29.9 0 16 13.8 29.7 38.4 29.7 16.6 0 29.1 -5.9 38 -13.8 l -8.9 -15 c -5.9 6.7 -16.8 11.7 -28.9 11.7 -11.1 0 -18.2 -5.1 -18.2 -11.9 0 -7.1 9.7 -9.1 21.2 -11.7 17 -3.6 37.8 -8.5 37.8 -31.6 0 -17.2 -14.4 -30.4 -40.7 -30.4 z m 10.7 -93.9 c -7.1 0 -13.2 5.9 -13.2 13.2 0 7.3 6.1 13.1 13.2 13.1 7.3 0 13.2 -5.9 13.2 -13.1 0 -7.3 -5.9 -13.2 -13.2 -13.2 z m 10.7 -109.7 h -21.2 v 97.7 h 21.2 z m -60.5 -2.4 c -16.4 0 -25.1 8.9 -25.1 25.1 v 56.4 h -16.2 v 18.6 h 16.2 v 26.7 h 21.2 v -26.7 h 19.8 v -18.6 h -19.8 v -51.2 c 0 -6.7 3.2 -11.5 9.3 -11.5 4 0 7.9 1.6 9.5 3.4 l 5.1 -16 c -3.8 -3.6 -10.1 -6.3 -20 -6.3 z m -62.7 289.8 c -10.9 0 -20.2 -6.5 -25.1 -13.2 v -68.2 h -21.2 v 97.7 h 21.2 v -13.4 c 6.5 7.7 19 15.8 34.4 15.8 21 0 31.6 -11.3 31.6 -31.4 v -68.8 h -21.2 v 61.1 c 0 15.2 -7.7 20.2 -19.6 20.2 z m 5.9 -287.3 h -21.2 v 10.5 c -7.3 -8.3 -18.6 -12.9 -31.6 -12.9 -16 0 -34 10.7 -34 32.4 0 22.5 18 31.8 34 31.8 13.1 0 24.5 -4.2 31.6 -12.5 v 14.6 c 0 11.3 -9.3 18.2 -22.9 18.2 -10.9 0 -20.4 -4 -28.9 -12.3 l -8.7 14.8 c 11.3 10.7 25.5 15.8 41.1 15.8 21.7 0 40.7 -9.1 40.7 -35.4 z m -145.8 -2.4 c -12.8 0 -23.9 6.1 -31.4 15.8 V 349.5 H 382.3 v 135 h 21.2 v -50.8 c 7.7 10.3 19 16 31.4 16 25.1 0 43.3 -19.8 43.3 -51.4 0 -32.2 -18.4 -51.2 -43.3 -51.2 z m -122.4 0 c -31 0 -50.2 23.3 -50.2 51.4 0 27.9 19.2 51.2 50.2 51.2 31.4 0 50.4 -23.3 50.4 -51.2 0 -28.1 -19 -51.4 -50.4 -51.4 z M 253.2 634.4 c -1.8 0.4 -4 0.6 -6.7 0.6 -8.9 0 -20.8 -6.1 -25.1 -12.9 v -66.6 h -21.2 v 97.7 h 21.2 v -14.4 c 7.3 9.3 19 16.6 31.8 16.6 z m 0 -206 c -1.8 0.4 -4 0.6 -6.7 0.6 -8.9 0 -20.8 -6.1 -25.1 -12.9 v -66.6 h -21.2 v 97.7 h 21.2 v -14.4 c 7.3 9.3 19 16.6 31.8 16.6 z m -115.1 177.5 h -35.6 v -50.4 H 78.9 v 135 h 59.3 c 28.3 0 44.1 -19.4 44.1 -42.3 0 -22.9 -16 -42.3 -44.1 -42.3 z m 0 -206 H 102.5 V 349.5 H 78.9 v 135 h 59.3 c 28.3 0 44.1 -19.4 44.1 -42.3 0 -22.9 -16 -42.3 -44.1 -42.3 z M 291.7 653.2 v -97.7 h -21.2 v 97.7 z m -10.7 38.2 c 7.3 0 13.2 -5.9 13.2 -13.2 0 -7.3 -5.9 -13.2 -13.2 -13.2 -7.1 0 -13.1 5.9 -13.1 13.2 0 7.3 6.1 13.2 13.1 13.2 z m 69.6 -95.5 c -16.8 3.6 -36.8 8.1 -36.8 29.9 0 16 13.8 29.7 38.4 29.7 16.6 0 29.1 -5.9 38 -13.8 l -8.9 -15 c -5.9 6.7 -16.8 11.7 -28.9 11.7 -11.1 0 -18.2 -5.1 -18.2 -11.9 0 -7.1 9.7 -9.1 21.2 -11.7 17 -3.6 37.8 -8.5 37.8 -31.6 0 -17.2 -14.4 -30.4 -40.7 -30.4 -16.6 0 -31.8 5.3 -41.9 15.2 l 9.7 15.4 c 6.9 -7.1 20.4 -13.8 33.2 -13.8 12.7 0 19.2 5.5 19.2 13.1 0 8.1 -10.3 10.3 -22.3 12.9 z m 107.2 59.7 c 31.4 0 50.4 -23.3 50.4 -51.2 0 -28.1 -19 -51.4 -50.4 -51.4 -31 0 -50.2 23.3 -50.2 51.4 0 27.9 19.2 51.2 50.2 51.2 z m 337.6 -24.7 c -5.7 10.1 -9.5 20.2 -9.5 29.6 0 18.2 15.6 32 36.6 32 18.4 0 33.4 -10.1 33.4 -27.7 0 -20.4 -17 -29.3 -33.8 -37.4 4.7 -6.3 9.5 -12.1 13.4 -16.6 4.4 -5.4 8.9 -10.7 13.4 -15.6 6.3 9.7 10.9 20.2 13.4 28.1 l 17.4 -7.9 c -4.9 -10.7 -10.9 -22.9 -18.8 -33.4 8.1 -8.7 16.6 -17.2 26.3 -26.5 h -27.7 c -3.2 2.8 -7.5 7.1 -11.9 11.7 -10.1 -8.5 -22.7 -14.2 -37.8 -14.2 -24.1 0 -43.5 12.7 -43.5 38.4 0 20.6 14 31.4 29.3 39.5 z M 0 996.2 V 294.8 H 1288 V 996.2 H 0"/></g></g></g></g></svg>