<svg width="48" fill="#000000" xmlns="http://www.w3.org/2000/svg" height="48" viewBox="0 0 48 48" xmlns:xlink="http://www.w3.org/1999/xlink" enable-background="new 0 0 16 16">
<path d="m18,12h-3c-1.656,0-3,1.341-3,3v18c0,1.659 1.344,3 3,3h3c1.656,0 3-1.341 3-3v-18c0-1.659-1.344-3-3-3zm0,21h-3v-18h3v18zm15-9h-3c-1.659,0-3,1.341-3,3v6c0,1.659 1.341,3 3,3h3c1.659,0 3-1.341 3-3v-6c0-1.659-1.341-3-3-3zm0,9h-3v-6h3v6zm6-33h-30c-4.971,0-9,4.029-9,9v30c0,4.971 4.029,9 9,9h30c4.968,0 9-4.029 9-9v-30c0-4.971-4.032-9-9-9zm3,39c0,1.659-1.341,3-3,3h-30c-1.656,0-3-1.341-3-3v-30c0-1.659 1.344-3 3-3h30c1.659,0 3,1.341 3,3v30z"/>
</svg>
