<svg xmlns="http://www.w3.org/2000/svg" width="48" height="48" enable-background="new 0 0 16 16"><path d="M24 48c-9.939 0-18-4.029-18-9v-5.064c0 4.974 8.061 8.064 18 8.064s18-3.09 18-8.064v5.064c0 4.971-8.061 9-18 9zm0-9c-9.939 0-18-4.029-18-9v-5.064c0 4.974 8.061 8.064 18 8.064s18-3.09 18-8.064v5.064c0 4.971-8.061 9-18 9zm0-9c-9.939 0-18-4.029-18-9v-5.064c0 4.974 8.061 8.064 18 8.064s18-3.09 18-8.064v5.064c0 4.971-8.061 9-18 9zm0-9c-9.939 0-18-4.029-18-9v-3c0-4.971 8.061-9 18-9s18 4.029 18 9v3c0 4.971-8.061 9-18 9z"/></svg>