<?xml version="1.0" encoding="utf-8"?><!-- Dev: 2fd --> <!DOCTYPE svg PUBLIC "-//W3C//DTD SVG 1.1//EN" "http://www.w3.org/Graphics/SVG/1.1/DTD/svg11.dtd"><svg version="1.1" id="Layer_1" xmlns="http://www.w3.org/2000/svg" xmlns:xlink="http://www.w3.org/1999/xlink" x="0px" y="0px"  	 width="100px" height="100px" viewbox="0 0 92.38 100" enable-background="new 0 0 92.38 100" xml:space="preserve">  <path fill="#010101" d="M88.961,44.478h-6.844c-1.89,0-3.422-1.531-3.422-3.422c0-1.889,1.532-3.418,3.422-3.418h6.844  	c1.888,0,3.419,1.531,3.419,3.418C92.38,42.948,90.851,44.478,88.961,44.478z"/>  <path fill="#010101" d="M75.517,21.701c-1.337,1.336-3.502,1.336-4.839,0c-1.337-1.335-1.337-3.502,0-4.837l4.839-4.839  	c1.337-1.336,3.503-1.336,4.839,0c1.337,1.335,1.337,3.503,0,4.839L75.517,21.701z"/>  <path fill="#010101" d="M70.474,48.404c0.876-2.282,1.377-4.754,1.381-7.347c0-11.337-9.193-20.529-20.532-20.529  	c-6.599,0-12.455,3.126-16.211,7.962c-2.453-0.722-5.048-1.119-7.739-1.119C12.255,27.373,0,39.627,0,54.747  	c0,2.365,0.332,4.651,0.896,6.844c1.884,7.288,6.675,13.414,13.093,17.019c0.472-2.157,1.526-4.218,3.203-5.894l0.099-0.099  	c-4.277-2.42-7.563-6.34-9.231-11.026H8.035c-0.758-2.146-1.193-4.443-1.193-6.844c0-11.34,9.191-20.532,20.529-20.532  	c9.738,0,17.851,6.8,19.958,15.896c2.139-1.384,4.675-2.209,7.415-2.209c7.56,0,13.685,6.129,13.685,13.689  	c0,5.89-3.729,10.901-8.956,12.829c1.349,1.962,2.045,4.228,2.092,6.514c7.98-2.815,13.712-10.4,13.712-19.343  	C75.276,56.566,73.469,51.972,70.474,48.404z M64.753,43.67c-2.964-1.656-6.373-2.612-10.009-2.612  	c-1.191,0-2.343,0.157-3.479,0.351c-2.3-4.107-5.628-7.558-9.631-10.015c2.476-2.484,5.902-4.021,9.688-4.021  	c7.559,0,13.685,6.127,13.685,13.685C65.007,41.952,64.917,42.824,64.753,43.67z"/>  <path fill="#010101" d="M51.322,13.685c-1.89,0-3.422-1.531-3.422-3.42V3.422C47.9,1.531,49.433,0,51.322,0  	c1.888,0,3.422,1.531,3.422,3.422v6.842C54.744,12.153,53.212,13.685,51.322,13.685z"/>  <path fill="#010101" d="M27.13,21.701l-4.839-4.837c-1.337-1.335-1.337-3.504,0-4.839c1.334-1.336,3.502-1.336,4.839,0l4.838,4.839  	c1.335,1.335,1.335,3.502,0,4.837C30.632,23.037,28.464,23.037,27.13,21.701z"/>  <path fill="#010101" d="M25.66,73.925l3.629,3.629c2.005,2.005,2.005,5.252,0,7.257c-2.003,2.005-5.252,2.005-7.257,0  	c-2.004-2.005-2.004-5.252,0-7.257L25.66,73.925z"/>  <path fill="#010101" d="M37.635,87.61l3.628,3.629c2.005,2.005,2.005,5.255,0,7.257c-2.001,2.005-5.251,2.005-7.257,0  	c-2.004-2.002-2.004-5.252,0-7.257L37.635,87.61z"/>  <path fill="#010101" d="M49.611,73.925l3.629,3.629c2.005,2.005,2.005,5.252,0,7.257s-5.253,2.005-7.257,0  	c-2.006-2.005-2.006-5.252,0-7.257L49.611,73.925z"/>  </svg>