<?xml version="1.0" encoding="utf-8"?><!-- Dev: 2fd --> <!DOCTYPE svg PUBLIC "-//W3C//DTD SVG 1.1//EN" "http://www.w3.org/Graphics/SVG/1.1/DTD/svg11.dtd"><svg version="1.1" id="Layer_1" xmlns="http://www.w3.org/2000/svg" xmlns:xlink="http://www.w3.org/1999/xlink" x="0px" y="0px"  	 width="100px" height="100px" viewbox="0 0 84.374 100" enable-background="new 0 0 84.374 100" xml:space="preserve">  <path fill="#010101" d="M81.249,40.625h-6.251c-1.727,0-3.124-1.4-3.124-3.125s1.397-3.125,3.124-3.125h6.251  	c1.726,0,3.125,1.4,3.125,3.125S82.975,40.625,81.249,40.625z"/>  <path fill="#010101" d="M68.972,19.821c-1.221,1.22-3.2,1.22-4.42,0c-1.219-1.221-1.219-3.199,0-4.419l4.42-4.419  	c1.219-1.22,3.198-1.22,4.418,0c1.221,1.221,1.221,3.199,0,4.419L68.972,19.821z"/>  <path fill="#010101" d="M60.545,81.33v-0.082h-1.172H24.997c-1.724,0-3.124-1.398-3.124-3.126c0-1.723,1.398-3.122,3.124-3.122  	c4.149,0,15.628,0,21.899,0h12.478h1.172v-0.082c4.622-0.579,8.202-4.513,8.202-9.294c0-4.963-3.868-8.982-8.746-9.312  	c-0.204-0.042-0.411-0.063-0.628-0.063c-1.725,0-3.126,1.4-3.126,3.125c0,1.727,1.401,3.125,3.126,3.125  	c1.724,0,3.123,1.399,3.123,3.126c0,1.726-1.399,3.125-3.123,3.125H44.062c-6.325,0-15.003,0-19.065,0  	c-10.354,0-18.749-8.396-18.749-18.75c0-10.356,8.395-18.751,18.749-18.751c8.893,0,16.305,6.21,18.229,14.518  	c1.953-1.266,4.271-2.016,6.772-2.016c4.624,0,8.651,2.516,10.813,6.25h-0.004c0.015,0.026,0.033,0.048,0.05,0.075  	c2.812,0.264,5.397,1.281,7.575,2.836c-0.179-1.001-0.448-1.97-0.781-2.911h0.017c-0.757-2.132-1.88-4.09-3.305-5.789  	c0.803-2.087,1.26-4.344,1.26-6.711c0-10.356-8.395-18.749-18.749-18.749c-6.028,0-11.375,2.854-14.806,7.272  	C29.827,25.362,27.457,25,24.999,25C11.192,25,0,36.193,0,50c0,10.943,7.04,20.219,16.832,23.607  	c-0.749,1.342-1.208,2.867-1.208,4.516c0,4.78,3.581,8.717,8.204,9.295v0.081h1.171h34.375c1.724,0,3.123,1.399,3.123,3.126  	c0,1.726-1.399,3.125-3.123,3.125c-1.725,0-3.126,1.399-3.126,3.125c0,1.725,1.401,3.126,3.126,3.126  	c0.213,0,0.424-0.024,0.628-0.064c4.878-0.331,8.746-4.35,8.746-9.312C68.747,85.846,65.167,81.907,60.545,81.33z M46.874,25  	c6.902,0,12.5,5.596,12.5,12.501c0,0.816-0.084,1.614-0.233,2.386c-2.706-1.513-5.82-2.386-9.141-2.386  	c-1.09,0-2.142,0.142-3.178,0.32c-2.1-3.755-5.14-6.905-8.797-9.148C40.288,26.403,43.416,25,46.874,25z"/>  <path fill="#010101" d="M46.874,12.5c-1.725,0-3.125-1.4-3.125-3.125v-6.25C43.749,1.4,45.149,0,46.874,0S50,1.4,50,3.125v6.25  	C50,11.1,48.599,12.5,46.874,12.5z"/>  <path fill="#010101" d="M24.776,19.821l-4.419-4.419c-1.221-1.22-1.221-3.199,0-4.419c1.22-1.22,3.199-1.22,4.419,0l4.419,4.419  	c1.22,1.221,1.22,3.199,0,4.419C27.976,21.041,25.999,21.041,24.776,19.821z"/>  <path fill="#010101" d="M67.187,78.122c0-1.725,1.4-3.122,3.125-3.122h4.687c1.726,0,3.125-1.401,3.125-3.125  	c0-1.727-1.399-3.126-3.125-3.126c-1.727,0-3.124-1.399-3.124-3.125c0-1.727,1.397-3.126,3.124-3.126  	c0.218,0,0.426,0.021,0.63,0.064c4.878,0.33,8.746,4.35,8.746,9.312c0,4.779-3.58,8.713-8.204,9.293v0.08h-1.172h-4.687  	C68.587,81.248,67.187,79.85,67.187,78.122z"/>  </svg>