<svg width="48" xmlns="http://www.w3.org/2000/svg" height="48" enable-background="new 0 0 16 16"><path d="M39 48h-30c-4.971 0-9-4.029-9-9v-30c0-4.971 4.029-9 9-9h30c4.971 0 9 4.029 9 9v30c0 4.971-4.029 9-9 9zm3-39c0-1.659-1.341-3-3-3h-30c-1.659 0-3 1.341-3 3v30c0 1.659 1.341 3 3 3h30c1.659 0 3-1.341 3-3v-30zm-9 27v3h-3v-3c-1.659 0-3-1.341-3-3v-18c0-1.659 1.341-3 3-3v-3h3v3c1.659 0 3 1.341 3 3v18c0 1.659-1.341 3-3 3zm0-21h-3v18h3v-18zm-15 15v9h-3v-9c-1.659 0-3-1.341-3-3v-6c0-1.656 1.341-3 3-3v-9h3v9c1.659 0 3 1.344 3 3v6c0 1.659-1.341 3-3 3zm0-9h-3v6h3v-6z"/></svg>