<?xml version="1.0" encoding="utf-8"?><!-- Dev: 2fd --> <!DOCTYPE svg PUBLIC "-//W3C//DTD SVG 1.1//EN" "http://www.w3.org/Graphics/SVG/1.1/DTD/svg11.dtd"><svg version="1.1" id="Layer_1" xmlns="http://www.w3.org/2000/svg" xmlns:xlink="http://www.w3.org/1999/xlink" x="0px" y="0px"  	 width="100px" height="100px" viewbox="0 0 100 96.475" enable-background="new 0 0 100 96.475" xml:space="preserve">  <path fill="#010101" d="M72.725,18.179c-1.582,0-3.111,0.208-4.621,0.466C61.884,7.525,50.009,0,36.362,0C16.281,0,0,16.279,0,36.36  	c0,13.618,7.501,25.472,18.586,31.699c0.627-2.867,2.027-5.602,4.257-7.83l0.13-0.129C14.69,55.417,9.095,46.547,9.095,36.36  	c0-15.061,12.209-27.271,27.269-27.271c12.936,0,23.713,9.033,26.515,21.115c2.841-1.841,6.21-2.934,9.846-2.934  	c10.042,0,18.184,8.139,18.184,18.18c0,7.827-4.959,14.481-11.899,17.042c1.791,2.605,2.715,5.615,2.776,8.652  	C92.391,67.407,100,57.332,100,45.45C99.995,30.389,87.787,18.179,72.725,18.179z"/>  <path fill="#010101" d="M34.089,61.835l-4.82,4.821c-2.663,2.663-2.663,6.979,0,9.642c2.664,2.664,6.979,2.664,9.641,0  	c2.663-2.663,2.663-6.979,0-9.642L34.089,61.835z"/>  <path fill="#010101" d="M49.999,80.014l-4.82,4.821c-2.665,2.663-2.665,6.983,0,9.642c2.662,2.664,6.979,2.664,9.638,0  	c2.663-2.658,2.663-6.979,0-9.642L49.999,80.014z"/>  <path fill="#010101" d="M65.906,61.835l-4.819,4.821c-2.665,2.663-2.665,6.979,0,9.642c2.662,2.664,6.977,2.664,9.641,0  	c2.663-2.663,2.663-6.979,0-9.642L65.906,61.835z"/>  </svg>