<svg width="48" fill="#000000" xmlns="http://www.w3.org/2000/svg" height="48" viewBox="0 0 48 48" xmlns:xlink="http://www.w3.org/1999/xlink" enable-background="new 0 0 16 16">
<path d="m44.463,23.787l-20.463,21.213-20.463-21.213c-4.686-4.686-4.686-12.285 0-16.971 4.686-4.686 12.285-4.686 16.971,0l3.492,4.245 3.492-4.242c4.686-4.686 12.285-4.686 16.971,0 4.686,4.683 4.686,12.282 0,16.968zm-12.729-12.726l-7.734,8.484-7.734-8.484c-2.343-2.343-6.144-2.343-8.487,0-2.34,2.343-2.34,6.141 0,8.484l16.221,16.971 16.221-16.971c2.34-2.343 2.34-6.141 0-8.484-2.343-2.346-6.144-2.346-8.487,0z"/>
</svg>
