<?xml version="1.0" encoding="utf-8"?><!-- Dev: 2fd --> <!DOCTYPE svg PUBLIC "-//W3C//DTD SVG 1.1//EN" "http://www.w3.org/Graphics/SVG/1.1/DTD/svg11.dtd"><svg version="1.1" id="Layer_1" xmlns="http://www.w3.org/2000/svg" xmlns:xlink="http://www.w3.org/1999/xlink" x="0px" y="0px"  	 width="100px" height="100px" viewbox="0 0 100 90.907" enable-background="new 0 0 100 90.907" xml:space="preserve">  <path fill="#010101" d="M95.454,72.727H4.546C2.037,72.727,0,70.692,0,68.181c0-2.51,2.037-4.546,4.546-4.546h90.908  	c2.509,0,4.546,2.036,4.546,4.546C100,70.69,97.966,72.727,95.454,72.727z"/>  <path fill="#010101" d="M95.454,54.543H4.546C2.037,54.543,0,52.51,0,49.998c0-2.508,2.037-4.546,4.546-4.546h90.908  	c2.509,0,4.546,2.038,4.546,4.546C100,52.51,97.966,54.543,95.454,54.543z"/>  <path fill="#010101" d="M72.726,27.273c-3.638,0-7.007,1.091-9.849,2.935C60.077,18.123,49.298,9.089,36.363,9.089  	c-15.061,0-27.271,12.213-27.271,27.276H0C0,16.284,16.282,0,36.363,0C50.01,0,61.887,7.528,68.105,18.647  	c1.51-0.257,3.039-0.466,4.621-0.466c11.869,0,21.938,7.596,25.687,18.184h-9.957C85.31,30.933,79.453,27.273,72.726,27.273z"/>  <path fill="#010101" d="M4.546,81.815h90.908c2.509,0,4.546,2.038,4.546,4.546c0,2.513-2.037,4.546-4.546,4.546H4.546  	C2.037,90.907,0,88.874,0,86.361C0,83.853,2.034,81.815,4.546,81.815z"/>  </svg>