<svg xmlns="http://www.w3.org/2000/svg" width="48" height="48" enable-background="new 0 0 16 16"><path d="M42 38.448v-17.448c0-4.971-4.029-9-9-9h-9.552c-1.239-3.486-4.536-6-8.448-6h-5.448c1.239-3.486 4.536-6 8.448-6h3c3.912 0 7.209 2.514 8.448 6h9.552c4.971 0 9 4.029 9 9v15c0 3.915-2.514 7.209-6 8.448zm-21.552-23.448h9.552c4.971 0 9 4.029 9 9v15c0 4.971-4.029 9-9 9h-21c-4.971 0-9-4.029-9-9v-21c0-4.971 4.029-9 9-9h3c3.912 0 7.209 2.514 8.448 6zm-14.448 3v21c0 1.659 1.344 3 3 3h3v-12c0-1.656 1.344-3 3-3h18v-3c0-1.656-1.341-3-3-3h-15v-3c0-1.656-1.344-3-3-3h-3c-1.656 0-3 1.344-3 3z"/></svg>