<svg xmlns="http://www.w3.org/2000/svg" width="48" height="48" enable-background="new 0 0 16 16"><path d="M45.438 19.533l-4.437 4.431c-2.766 2.766-6.873 3.321-10.212 1.731l10.212-10.215c1.173-1.173 1.173-3.072 0-4.242l-4.239-4.248c-1.173-1.173-3.069-1.173-4.242 0l-10.215 10.218c-1.59-3.342-1.035-7.449 1.731-10.218l4.428-4.431c3.516-3.513 9.216-3.513 12.726 0l4.248 4.242c3.51 3.516 3.51 9.216 0 12.732zm-29.886 12.912c-1.173-1.173-1.173-3.069 0-4.242l12.726-12.726c1.173-1.173 3.069-1.173 4.242 0s1.173 3.069 0 4.242l-12.726 12.726c-1.17 1.173-3.072 1.173-4.242 0zm-8.487 4.245l4.242 4.242c1.173 1.173 3.069 1.173 4.242 0l10.218-10.218c1.59 3.342 1.035 7.449-1.731 10.218l-4.056 4.431c-3.516 3.516-9.213 3.516-12.729 0l-4.62-4.617c-3.513-3.516-3.513-9.213 0-12.729l4.431-4.056c2.772-2.766 6.876-3.321 10.221-1.731l-10.218 10.215c-1.17 1.173-1.17 3.075 0 4.245z"/></svg>