<svg xmlns="http://www.w3.org/2000/svg" width="48" height="48" enable-background="new 0 0 16 16"><path d="M42 27h6v6h-6v-6zm0-12h6v6h-6v-6zm-3-9v-6c4.971 0 9 4.029 9 9h-6c0-1.656-1.341-3-3-3zm-6 21h-6v6c0 1.659-1.341 3-3 3-1.656 0-3-1.341-3-3v-6h-6c-1.656 0-3-1.341-3-3 0-1.656 1.344-3 3-3h6v-6c0-1.656 1.344-3 3-3 1.659 0 3 1.344 3 3v6h6c1.659 0 3 1.344 3 3 0 1.659-1.341 3-3 3zm-6-27h6v6h-6v-6zm-12 0h6v6h-6v-6zm-15 39h6c0 1.659 1.344 3 3 3v6c-4.971 0-9-4.029-9-9zm6-30h-6c0-4.971 4.029-9 9-9v6c-1.656 0-3 1.344-3 3zm0 12h-6v-6h6v6zm0 12h-6v-6h6v6zm15 15h-6v-6h6v6zm12 0h-6v-6h6v6zm9-9h6c0 4.971-4.029 9-9 9v-6c1.659 0 3-1.341 3-3z"/></svg>