<svg xmlns="http://www.w3.org/2000/svg" viewBox="0 0 100 100" xmlns:xlink="http://www.w3.org/1999/xlink" enable-background="new 0 0 99.993 100">
<g fill="#010101">
<path d="M49.997,0C22.388,0,0,22.388,0,49.997C0,77.61,22.388,100,49.997,100c27.61,0,49.996-22.39,49.996-50.003   C99.993,22.384,77.607,0,49.997,0z M49.997,85.71c-19.719,0-35.71-15.989-35.71-35.717c0-19.719,15.991-35.71,35.71-35.71   c19.721,0,35.713,15.991,35.713,35.71C85.709,69.721,69.717,85.71,49.997,85.71z"/>
<path d="m49.997,35.713c-7.886,0-14.283,6.394-14.283,14.283 0,7.886 14.283,28.574 14.283,28.574s14.287-20.684 14.287-28.574c0-7.889-6.398-14.283-14.287-14.283zm0,17.855c-1.971,0-3.572-1.598-3.572-3.572 0-1.973 1.601-3.572 3.572-3.572 1.975,0 3.571,1.599 3.571,3.572 0,1.971-1.597,3.572-3.571,3.572z"/>
</g>
</svg>
