<svg xmlns="http://www.w3.org/2000/svg" width="48" height="48" enable-background="new 0 0 16 16"><path d="M39 42v3c0 1.659-1.341 3-3 3h-24c-1.656 0-3-1.341-3-3v-3c-4.971 0-9-4.029-9-9v-9c0-4.971 4.029-9 9-9v-12c0-1.659 1.344-3 3-3h24c1.659 0 3 1.341 3 3v12c4.968 0 9 4.029 9 9v9c0 4.971-4.032 9-9 9zm-27 3h24v-12h-24v12zm24-42h-24v12h3v-9h18v9h3v-12zm-18 6v6h12v-6h-12zm18 12h-3v3h3v-3zm0 6h-24c-3.312 0-6 2.688-6 6v3h3v-3c0-1.659 1.344-3 3-3h24c1.659 0 3 1.341 3 3v3h3v-3c0-3.312-2.688-6-6-6zm6-6h-3v3h3v-3z"/></svg>