<svg xmlns="http://www.w3.org/2000/svg" width="48" height="48" enable-background="new 0 0 16 16"><path d="M9 24h30v-3h-30v3zm0-6h30v-3h-30v3zm30-18h-30c-4.971 0-9 4.029-9 9v30c0 4.971 4.029 9 9 9h30c4.971 0 9-4.029 9-9v-30c0-4.971-4.029-9-9-9zm3 39c0 1.659-1.341 3-3 3h-30c-1.656 0-3-1.341-3-3v-30c0-1.656 1.344-3 3-3h30c1.659 0 3 1.344 3 3v30zm-33-27h30v-3h-30v3zm17.121 15.882c-.585-.585-1.353-.882-2.121-.882s-1.536.297-2.121.882l-6 6c-.855.855-1.113 2.142-.651 3.267.462 1.122 1.56 1.851 2.772 1.851h12c1.212 0 2.31-.729 2.772-1.851.462-1.119.207-2.415-.651-3.27l-6-5.997z"/></svg>