<svg xmlns="http://www.w3.org/2000/svg" width="48" height="48" enable-background="new 0 0 16 16"><path d="M39 36h-3c-3.915 0-7.206-2.511-8.448-6h11.448c1.659 0 3-1.341 3-3v-6c0-1.659-1.341-3-3-3h-11.448c1.242-3.486 4.533-6 8.448-6h3c4.968 0 9 4.029 9 9v6c0 4.971-4.032 9-9 9zm-27-12c0-1.659 1.344-3 3-3h18c1.659 0 3 1.341 3 3s-1.341 3-3 3h-18c-1.656 0-3-1.341-3-3zm-6-3v6c0 1.659 1.344 3 3 3h11.448c-1.239 3.489-4.536 6-8.448 6h-3c-4.971 0-9-4.029-9-9v-6c0-4.971 4.029-9 9-9h3c3.912 0 7.209 2.514 8.448 6h-11.448c-1.656 0-3 1.341-3 3z"/></svg>