<svg xmlns="http://www.w3.org/2000/svg" width="48" height="48" enable-background="new 0 0 16 16"><path d="M47.772 22.851c-.462-1.119-1.56-1.851-2.772-1.851h-3v-6c0-4.971-4.029-9-9-9h-6v-3.003c0-1.212-.732-2.31-1.851-2.772-1.122-.462-2.412-.204-3.27.651l-6 6c-.585.585-.879 1.353-.879 2.121s.294 1.536.879 2.121l6 6c.858.858 2.148 1.113 3.27.651 1.119-.462 1.851-1.56 1.851-2.772v-2.997h6c1.659 0 3 1.344 3 3v6h-3c-1.212 0-2.31.732-2.772 1.851-.462 1.122-.204 2.412.651 3.27l6 6c.585.585 1.353.879 2.121.879s1.536-.294 2.121-.879l6-6c.858-.858 1.113-2.148.651-3.27zm-23.772 7.149c1.659 0 3 1.341 3 3v12c0 1.659-1.341 3-3 3h-12c-1.656 0-3-1.341-3-3v-3h12v-12h3zm-6 6v-12c0-1.656-1.344-3-3-3h-12c-1.656 0-3 1.344-3 3v12c0 1.659 1.344 3 3 3h12c1.656 0 3-1.341 3-3zm-6-3h-6v-6h6v6z"/></svg>