<svg xmlns="http://www.w3.org/2000/svg" width="48" height="48" enable-background="new 0 0 16 16"><path d="M39 0h-30c-4.971 0-9 4.029-9 9v30c0 4.968 4.029 9 9 9h30c4.968 0 9-4.032 9-9v-30c0-4.971-4.032-9-9-9zm-31.5 42c-.828 0-1.5-.672-1.5-1.5 0-.825.672-1.5 1.5-1.5s1.5.675 1.5 1.5c0 .828-.672 1.5-1.5 1.5zm0-33c-.828 0-1.5-.672-1.5-1.5s.672-1.5 1.5-1.5 1.5.672 1.5 1.5-.672 1.5-1.5 1.5zm25.5 30c0 1.659-1.341 3-3 3h-12c-1.656 0-3-1.341-3-3v-30c0-1.656 1.344-3 3-3h12c1.659 0 3 1.344 3 3v30zm7.5 3c-.825 0-1.5-.672-1.5-1.5 0-.825.675-1.5 1.5-1.5s1.5.675 1.5 1.5c0 .828-.675 1.5-1.5 1.5zm0-33c-.825 0-1.5-.672-1.5-1.5s.675-1.5 1.5-1.5 1.5.672 1.5 1.5-.675 1.5-1.5 1.5zm-13.5 15h-6c-1.656 0-3 1.344-3 3v9c0 1.659 1.344 3 3 3h6c1.659 0 3-1.341 3-3v-9c0-1.656-1.341-3-3-3z"/></svg>