<?xml version="1.0" encoding="utf-8"?>
<!-- Generator: Adobe Illustrator 16.0.0, SVG Export Plug-In . SVG Version: 6.00 Build 0)  -->
<!DOCTYPE svg PUBLIC "-//W3C//DTD SVG 1.1//EN" "http://www.w3.org/Graphics/SVG/1.1/DTD/svg11.dtd">
<svg version="1.1" id="Layer_1" xmlns="http://www.w3.org/2000/svg" xmlns:xlink="http://www.w3.org/1999/xlink" x="0px" y="0px"
	 width="100px" height="100px" viewBox="0 0 100 100" enable-background="new 0 0 100 100" xml:space="preserve">
<path fill="#010101" d="M66.666,63.116v-46.45C66.666,7.462,59.203,0,50,0c-9.204,0-16.669,7.462-16.669,16.666v46.45
	c-3.446,3.913-5.554,9.034-5.554,14.661C27.777,90.051,37.727,100,50,100c12.271,0,22.223-9.949,22.223-22.223
	C72.222,72.15,70.109,67.029,66.666,63.116z M50,88.887c-6.137,0-11.113-4.973-11.113-11.109c0-4.103,2.25-7.646,5.558-9.571V56.282
	V27.776v-11.11c0-3.067,2.488-5.556,5.556-5.556c3.065,0,5.554,2.489,5.554,5.556v11.11v28.506v11.924
	c3.308,1.927,5.558,5.47,5.558,9.571C61.11,83.915,56.133,88.887,50,88.887z"/>
</svg>
