<svg xmlns="http://www.w3.org/2000/svg" width="48" height="48" enable-background="new 0 0 16 16"><path d="M39 48h-30c-4.971 0-9-4.032-9-9v-30c0-4.971 4.029-9 9-9h30c4.968 0 9 4.029 9 9v30c0 4.968-4.032 9-9 9zm3-39c0-1.656-1.341-3-3-3h-30v3h-3v6h36v-6zm0 12h-36v18c0 1.659 1.344 3 3 3h30c1.659 0 3-1.341 3-3v-18zm-33 9h27v3h-27v-3zm0-6h27v3h-27v-3zm21 15h-21v-3h21v3zm-12-30h-3v-3h3v3zm3 3h-3v-3h3v3zm-6 3v-3h3v3h-3zm12-6h-3v-3h3v3zm3 3h-3v-3h3v3zm-6 3v-3h3v3h-3zm12-6h-3v-3h3v3zm3 3h-3v-3h3v3zm-6 3v-3h3v3h-3zm-21-3h-3v-3h3v3zm-6 3v-3h3v3h-3z"/></svg>