<svg xmlns="http://www.w3.org/2000/svg" width="48" height="48" enable-background="new 0 0 16 16"><path d="M42 42h-.552c-1.239 3.486-4.536 6-8.448 6h-24c-4.971 0-9-4.029-9-9v-30c0-4.971 4.029-9 9-9h24c4.971 0 9 4.029 9 9v12c3.312 0 6 2.688 6 6v9c0 3.312-2.688 6-6 6zm-15 0h6c1.659 0 3-1.341 3-3h-9v3zm-21-3c0 1.659 1.344 3 3 3h12v-3h-3c-3.312 0-6-2.688-6-6v-3c0-3.312 2.688-6 6-6h3v-3h-15v18zm18-24c1.659 0 3 1.341 3 3v6h3v-12h-18v3h12zm12 6v-12c0-1.659-1.341-3-3-3h-24c-1.656 0-3 1.341-3 3v6h3v-6h24v15h3v-3zm6 9c0-1.659-1.341-3-3-3h-21c-1.656 0-3 1.341-3 3v3c0 1.659 1.344 3 3 3h21c1.659 0 3-1.341 3-3v-3z"/></svg>