<svg xmlns="http://www.w3.org/2000/svg" width="48" height="48" enable-background="new 0 0 16 16"><path d="M0 39v-30c0-4.971 4.029-9 9-9h24c4.968 0 9 4.029 9 9v6h3c1.659 0 3 1.341 3 3v12c0 1.659-1.341 3-3 3h-3v6c0 4.971-4.032 9-9 9h-24c-4.971 0-9-4.029-9-9zm45-9v-12h-18v12h18zm-12 12c1.659 0 3-1.341 3-3v-6h-3v3h-3v-3h-3c-1.656 0-3-1.341-3-3v-12c0-1.659 1.344-3 3-3h9v-6c0-1.656-1.341-3-3-3h-24c-1.656 0-3 1.344-3 3v30c0 1.659 1.344 3 3 3h24zm-24-6h3v3c-1.656 0-3-1.341-3-3zm9 0v3h-3v-3h3zm6 0v3h-3v-3h3zm-12-6v3h-3v-3h3zm0-6v3h-3v-3h3zm0-6v3h-3v-3h3zm0-6v3h-3v-3h3zm3-3v3h-3v-3h3zm6 0v3h-3v-3h3zm6 0v3h-3v-3h3zm6 3h-3v-3c1.659 0 3 1.344 3 3zm-6 27v-3h3v3h-3zm9-15c0 1.659-1.341 3-3 3s-3-1.341-3-3 1.341-3 3-3 3 1.341 3 3z"/></svg>