<svg xmlns="http://www.w3.org/2000/svg" width="48" height="48" enable-background="new 0 0 16 16"><path d="M43.092 22.908c-10.545-10.545-27.642-10.545-38.187 0l-4.239-4.242c12.888-12.888 33.783-12.888 46.671 0l-4.245 4.242zm-2.121 2.121l-4.245 4.245c-7.029-7.032-18.426-7.032-25.452 0l-4.245-4.245c9.372-9.372 24.567-9.372 33.942 0zm-6.366 6.366l-4.242 4.242c-3.513-3.516-9.21-3.516-12.726 0l-4.242-4.242c5.856-5.859 15.354-5.859 21.21 0zm-10.605 4.605c3.312 0 6 2.688 6 6s-2.688 6-6 6-6-2.688-6-6 2.688-6 6-6z"/></svg>